{"title":"Chernobyl Diaries 2012 R5 CAM AUDiO XviD-BiDA ","uid":7409339,"size":746406364,"categoryP":"video","categoryS":"movies","magnet":"?xt=urn:btih:f108c2249c112b732d481faa167f022dcb9940a0&amp;dn=Chernobyl+Diaries+2012+R5+CAM+AUDiO+XviD-BiDA+&amp;tr=udp%3A%2F%2Ftracker.openbittorrent.com%3A80&amp;tr=udp%3A%2F%2Fopen.demonii.com%3A1337&amp;tr=udp%3A%2F%2Ftracker.coppersurfer.tk%3A6969&amp;tr=udp%3A%2F%2Fexodus.desync.com%3A6969","seeders":1,"leechers":0,"uploader":"Hackulus","files":-1,"time":1341336792,"description":"\n\nChernobyl Diaries 2012 R5 CAM AUDiO XviD-BiDA.avi\nFormat                                   : AVI\nFormat/Info                              : Audio Video Interleave\nFile size                                : 176 MiB\nDuration                                 : 1h 24mn\nOverall bit rate                         : 292 Kbps\nWriting library                          : VirtualDub build 32842/release\n\nVideo\nID                                       : 0\nFormat                                   : MPEG-4 Visual\nFormat profile                           : Advanced Simple@L5\nFormat settings, BVOP                    : 2\nFormat settings, QPel                    : No\nFormat settings, GMC                     : No warppoints\nFormat settings, Matrix                  : Custom\nCodec ID                                 : XVID\nCodec ID/Hint                            : XviD\nDuration                                 : 1h 24mn\nBit rate                                 : 144 Kbps\nWidth                                    : 640 pixels\nHeight                                   : 336 pixels\nDisplay aspect ratio                     : 1.905\nFrame rate                               : 25.000 fps\nColor space                              : YUV\nChroma subsampling                       : 4:2:0\nBit depth                                : 8 bits\nScan type                                : Progressive\nCompression mode                         : Lossy\nBits/(Pixel*Frame)                       : 0.027\nStream size                              : 86.8 MiB (49%)\nWriting library                          : XviD 1.2.1 (UTC 2008-12-04)\n\nAudio\nID                                       : 1\nFormat                                   : MPEG Audio\nFormat version                           : Version 1\nFormat profile                           : Layer 3\nCodec ID                                 : 55\nCodec ID/Hint                            : MP3\nDuration                                 : 1h 24mn\nBit rate mode                            : Constant\nBit rate                                 : 128 Kbps\nChannel(s)                               : 2 channels\nSampling rate                            : 44.1 KHz\nCompression mode                         : Lossy\nStream size                              : 77.3 MiB (44%)\nAlignment                                : Split accross interleaves\n\nSix tourists hire an extreme tour guide who takes them to the abandoned city Pripyat, the former home to the workers of the Chernobyl nuclear reactor. During their exploration, they soon discover they are not alone. \n\n","torrent":{"xt":"urn:btih:f108c2249c112b732d481faa167f022dcb9940a0","amp;dn":"Chernobyl+Diaries+2012+R5+CAM+AUDiO+XviD-BiDA+","amp;tr":["udp%3A%2F%2Ftracker.openbittorrent.com%3A80","udp%3A%2F%2Fopen.demonii.com%3A1337","udp%3A%2F%2Ftracker.coppersurfer.tk%3A6969","udp%3A%2F%2Fexodus.desync.com%3A6969"],"infoHash":"f108c2249c112b732d481faa167f022dcb9940a0","infoHashBuffer":{"type":"Buffer","data":[241,8,194,36,156,17,43,115,45,72,31,170,22,127,2,45,203,153,64,160]},"announce":[],"urlList":[]}}